PathFileType	4	(X/Y/Z)	/Users/itak/Documents/Research/Walk-IL/dataset/trc/00013_00004.trc
DataRate	CameraRate	NumFrames	NumMarkers	Units	OrigDataRate	OrigDataStartFrame	OrigNumFrames
100.000000	100.000000	4	55	mm	100.000000	70	566
Frame#	Time	RPSI			LPSI			L3			STRN			T10			C7			CLAV			RBAK			LBAK			LSHO			LUPA			LAEL			LAOL			LWTS			LWPS			LFRA			LIFD			LHTS			RSHO			RUPA			RAEL			RAOL			RWTS			RWPS			RFRA			RIFD			RHTS			RHPS			RBHD			LFHD			RFHD			LBHD			LHIP			RHIP			RASI			LASI			LKNE			LTHI			LANK			LTIP			LTOE			LMT1			LMT5			LHEE			RKNE			RTHI			RANK			RTIP			RTOE			RMT1			RMT5			RHEE			LHPS			*53			*54			
		X1	Y1	Z1	X2	Y2	Z2	X3	Y3	Z3	X4	Y4	Z4	X5	Y5	Z5	X6	Y6	Z6	X7	Y7	Z7	X8	Y8	Z8	X9	Y9	Z9	X10	Y10	Z10	X11	Y11	Z11	X12	Y12	Z12	X13	Y13	Z13	X14	Y14	Z14	X15	Y15	Z15	X16	Y16	Z16	X17	Y17	Z17	X18	Y18	Z18	X19	Y19	Z19	X20	Y20	Z20	X21	Y21	Z21	X22	Y22	Z22	X23	Y23	Z23	X24	Y24	Z24	X25	Y25	Z25	X26	Y26	Z26	X27	Y27	Z27	X28	Y28	Z28	X29	Y29	Z29	X30	Y30	Z30	X31	Y31	Z31	X32	Y32	Z32	X33	Y33	Z33	X34	Y34	Z34	X35	Y35	Z35	X36	Y36	Z36	X37	Y37	Z37	X38	Y38	Z38	X39	Y39	Z39	X40	Y40	Z40	X41	Y41	Z41	X42	Y42	Z42	X43	Y43	Z43	X44	Y44	Z44	X45	Y45	Z45	X46	Y46	Z46	X47	Y47	Z47	X48	Y48	Z48	X49	Y49	Z49	X50	Y50	Z50	X51	Y51	Z51	X52	Y52	Z52	X53	Y53	Z53	X54	Y54	Z54	X55	Y55	Z55	

71	0.7000000000000001	937.4214477539062	1054.890625	-239.5855255126953	925.5208740234375	1047.167724609375	-403.5565490722656	925.1993408203125	1111.160522460938	-330.1493530273438	1136.96337890625	1314.187133789062	-332.4630126953125	890.6797485351562	1252.45556640625	-332.2877502441406	922.193115234375	1522.813842773438	-344.8633422851562	1087.531005859375	1437.818603515625	-337.7874145507812	878.9273681640625	1383.233154296875	-263.32763671875	908.3614501953125	1479.236938476562	-442.5470886230469	1012.188903808594	1491.0322265625	-515.7212524414062	987.7188720703125	1364.373657226562	-593.1428833007812	994.5697631835938	1145.85595703125	-614.13916015625	939.9371948242188	1132.926879882812	-525.1878051757812	1086.498046875	895.58837890625	-554.9031372070312	1010.536865234375	879.0095825195312	-598.0545043945312	1009.981994628906	1030.376708984375	-618.6377563476562	1117.21875	711.6734008789062	-535.4120483398438	1109.747192382812	802.3074340820312	-567.8353881835938	1000.744689941406	1514.29248046875	-169.1413269042969	991.7509155273438	1442.1806640625	-95.82647705078125	965.4406127929688	1172.375122070312	-74.39129638671875	963.7733154296875	1144.733154296875	-170.6107940673828	1098.83154296875	915.3884887695312	-102.4732208251953	1032.86474609375	900.8596801757812	-40.73226928710938	980.0389404296875	1097.548461914062	-59.11894989013672	1121.285278320312	728.7777709960938	-112.1144332885742	1132.236450195312	805.4939575195312	-86.004638671875	1074.250122070312	801.5439453125	-38.71411514282227	979.1766357421875	1708.246704101562	-263.2035217285156	1141.156127929688	1726.899047851562	-396.8979187011719	1148.89990234375	1730.320556640625	-299.2358703613281	959.6329345703125	1707.629638671875	-406.3882446289062	1016.655578613281	950.4443969726562	-513.57421875	1060.770629882812	951.4591064453125	-144.7351379394531	1158.058959960938	984.7863159179688	-223.1641845703125	1138.42041015625	1000.719665527344	-458.8315124511719	1052.069091796875	505.4989013671875	-466.1566162109375	1034.231201171875	642.0447998046875	-500.8311462402344	946.6910400390625	29.6125373840332	-461.7944946289062	967.0584716796875	276.6487731933594	-481.0852661132812	1169.603637695312	27.73730659484863	-400.097412109375	1109.800048828125	37.54838562011719	-383.4184265136719	1070.795776367188	27.69754409790039	-483.2439575195312	878.8043212890625	36.19685363769531	-406.7330932617188	1053.411987304688	514.2615356445312	-189.4487152099609	1080.213134765625	782.6825561523438	-147.7126007080078	933.2288818359375	35.69576263427734	-201.0073394775391	1023.251953125	394.1594848632812	-186.2020721435547	1163.788452148438	30.82948875427246	-252.0055389404297	1098.8173828125	37.24824905395508	-279.8742065429688	1083.543823242188	30.30766868591309	-182.7755889892578	874.703125	37.45363998413086	-243.8852996826172	1045.061401367188	790.0579833984375	-596.106201171875	nan	nan	nan	nan	nan	nan	
72	0.71	937.4956665039062	1054.882202148438	-239.3421173095703	925.3680419921875	1047.22265625	-403.3641357421875	925.1856079101562	1111.168701171875	-329.9117126464844	1136.986083984375	1314.207153320312	-332.3699340820312	890.8782958984375	1252.43310546875	-331.994873046875	922.146240234375	1522.765380859375	-344.5143432617188	1087.544311523438	1437.840454101562	-337.570068359375	878.8848876953125	1383.190551757812	-263.0535888671875	908.2318725585938	1479.240844726562	-442.2224426269531	1012.052612304688	1491.10009765625	-515.4703979492188	987.5567626953125	1364.432983398438	-592.8833618164062	994.3446044921875	1145.920043945312	-613.9093627929688	939.7996826171875	1132.97705078125	-524.8842163085938	1086.213989257812	895.5658569335938	-554.8104858398438	1010.217407226562	879.0692749023438	-597.8670654296875	1009.682678222656	1030.409790039062	-618.4432983398438	1117.018432617188	711.8638916015625	-535.3956909179688	1109.414184570312	802.2673950195312	-567.7330322265625	1000.843139648438	1514.263427734375	-168.8915557861328	991.8735961914062	1442.138427734375	-95.58376312255859	965.6740112304688	1172.335571289062	-74.10176849365234	963.911376953125	1144.699462890625	-170.3389892578125	1099.079711914062	915.3684692382812	-102.2543029785156	1033.290283203125	900.839111328125	-40.41210556030273	980.2593994140625	1097.512573242188	-58.84431076049805	1121.598388671875	728.8151245117188	-111.898551940918	1132.547241210938	805.5065307617188	-85.80000305175781	1074.72119140625	801.5596923828125	-38.40789413452148	978.8598022460938	1708.20263671875	-262.94091796875	1140.854858398438	1727.017944335938	-396.8848876953125	1148.681518554688	1730.539428710938	-299.2363586425781	959.3745727539062	1707.492553710938	-406.1369934082031	1016.500366210938	950.49609375	-513.444580078125	1060.96533203125	951.4602661132812	-144.6407928466797	1158.118408203125	984.7760009765625	-223.1452789306641	1138.38232421875	1000.770751953125	-458.8338317871094	1052.0390625	505.5142822265625	-466.1421813964844	1034.204467773438	642.0589599609375	-500.7817993164062	946.6986694335938	29.60931015014648	-461.7830200195312	967.0226440429688	276.6528625488281	-481.0616455078125	1169.603515625	27.73999786376953	-400.099365234375	1109.804565429688	37.55681228637695	-383.428955078125	1070.79736328125	27.69772720336914	-483.2548522949219	878.8001098632812	36.20137023925781	-406.724609375	1053.44140625	514.2246704101562	-189.4091949462891	1080.276245117188	782.6220092773438	-147.6910247802734	933.2271728515625	35.69466400146484	-201.01025390625	1023.280578613281	394.1329650878906	-186.1729431152344	1163.788940429688	30.82970237731934	-252.0069732666016	1098.820434570312	37.24324798583984	-279.8750610351562	1083.544799804688	30.30744743347168	-182.7741851806641	874.7018432617188	37.45917892456055	-243.8850250244141	1044.6982421875	790.0896606445312	-595.9410400390625	nan	nan	nan	nan	nan	nan	
73	0.72	937.6036376953125	1054.867553710938	-239.1077117919922	925.2130126953125	1047.266479492188	-403.1912841796875	925.1648559570312	1111.167846679688	-329.696044921875	1137.006713867188	1314.22314453125	-332.2749938964844	891.0910034179688	1252.416381835938	-331.6829528808594	922.087158203125	1522.706176757812	-344.1729736328125	1087.553344726562	1437.854736328125	-337.3485717773438	878.8262329101562	1383.15087890625	-262.7821350097656	908.1098022460938	1479.240844726562	-441.9101257324219	1011.943420410156	1491.157592773438	-515.2214965820312	987.4046630859375	1364.4990234375	-592.61669921875	994.1212768554688	1145.986694335938	-613.6705322265625	939.6439819335938	1133.025146484375	-524.5740356445312	1085.93701171875	895.5390625	-554.7153930664062	1009.896789550781	879.10986328125	-597.6666259765625	1009.386352539062	1030.430297851562	-618.2341918945312	1116.763427734375	712.0170288085938	-535.3655395507812	1109.0322265625	802.1836547851562	-567.596435546875	1000.937377929688	1514.232177734375	-168.6371154785156	991.9884033203125	1442.096801757812	-95.34610748291016	965.895751953125	1172.293212890625	-73.81228637695312	964.0618286132812	1144.663696289062	-170.0591888427734	1099.321533203125	915.3529052734375	-102.044792175293	1033.715454101562	900.820556640625	-40.09397506713867	980.4642333984375	1097.478149414062	-58.57424926757812	1121.920776367188	728.842529296875	-111.6466598510742	1132.884033203125	805.5336303710938	-85.58404541015625	1075.220458984375	801.5787353515625	-38.09696578979492	978.509765625	1708.151245117188	-262.7066040039062	1140.558471679688	1727.162353515625	-396.8354797363281	1148.423461914062	1730.757446289062	-299.1620788574219	959.117919921875	1707.345092773438	-405.8985290527344	1016.343505859375	950.5446166992188	-513.3131713867188	1061.15869140625	951.4605102539062	-144.5372161865234	1158.174438476562	984.7699584960938	-223.1256408691406	1138.350708007812	1000.806091308594	-458.8236999511719	1051.997802734375	505.5274963378906	-466.1329040527344	1034.189697265625	642.0673217773438	-500.7346801757812	946.70458984375	29.6053409576416	-461.7713623046875	966.97607421875	276.6576232910156	-481.0365295410156	1169.603393554688	27.74320411682129	-400.1019287109375	1109.808959960938	37.5651969909668	-383.4431762695312	1070.799560546875	27.69639015197754	-483.2702331542969	878.7942504882812	36.20718002319336	-406.7134399414062	1053.475952148438	514.1887817382812	-189.3667755126953	1080.323486328125	782.5643310546875	-147.6604766845703	933.2271728515625	35.6998405456543	-201.0137634277344	1023.326965332031	394.1130676269531	-186.1537933349609	1163.789672851562	30.83015823364258	-252.0082855224609	1098.823974609375	37.2385368347168	-279.8756408691406	1083.546752929688	30.30770492553711	-182.7730255126953	874.7022094726562	37.47055053710938	-243.8881530761719	1044.320556640625	790.1172485351562	-595.7638549804688	nan	nan	nan	nan	nan	nan	
74	0.73	937.7379150390625	1054.84521484375	-238.8871765136719	925.05517578125	1047.299560546875	-403.0385131835938	925.1435546875	1111.156372070312	-329.5033264160156	1137.024291992188	1314.234375	-332.176025390625	891.296630859375	1252.407470703125	-331.3584899902344	922.020751953125	1522.642944335938	-343.8412475585938	1087.554443359375	1437.8603515625	-337.1270446777344	878.757080078125	1383.116577148438	-262.5059509277344	908.0005493164062	1479.237548828125	-441.6092834472656	1011.86083984375	1491.201904296875	-514.9736938476562	987.2587280273438	1364.571655273438	-592.343994140625	993.8988037109375	1146.050415039062	-613.4222412109375	939.4745483398438	1133.070922851562	-524.262939453125	1085.671142578125	895.5180053710938	-554.6145629882812	1009.576232910156	879.1309814453125	-597.4561157226562	1009.095581054688	1030.443603515625	-618.0087890625	1116.427490234375	712.1012573242188	-535.3057250976562	1108.61669921875	802.0762939453125	-567.4342651367188	1001.026611328125	1514.19873046875	-168.37939453125	992.1022338867188	1442.055053710938	-95.10945129394531	966.10986328125	1172.247680664062	-73.52234649658203	964.2362670898438	1144.62255859375	-169.7703247070312	1099.567626953125	915.3435668945312	-101.8385467529297	1034.124389648438	900.802734375	-39.78731918334961	980.6585693359375	1097.443115234375	-58.30898284912109	1122.252319335938	728.8643188476562	-111.3691864013672	1133.236572265625	805.5718994140625	-85.36455535888672	1075.7216796875	801.5963745117188	-37.79572296142578	978.1585693359375	1708.097534179688	-262.4983825683594	1140.270263671875	1727.335571289062	-396.7452392578125	1148.135131835938	1730.974975585938	-299.01806640625	958.8593139648438	1707.187377929688	-405.6702575683594	1016.190002441406	950.5890502929688	-513.1822509765625	1061.340209960938	951.4578247070312	-144.4261627197266	1158.225219726562	984.7679443359375	-223.1049499511719	1138.317138671875	1000.816101074219	-458.7904663085938	1051.950439453125	505.5392456054688	-466.1260375976562	1034.18310546875	642.0704345703125	-500.6897277832031	946.708740234375	29.60140800476074	-461.7601623535156	966.922607421875	276.6641235351562	-481.0088806152344	1169.60302734375	27.74658966064453	-400.105224609375	1109.809692382812	37.56747436523438	-383.4588623046875	1070.802734375	27.69351959228516	-483.2894592285156	878.787109375	36.21348571777344	-406.6991882324219	1053.517333984375	514.15087890625	-189.3183441162109	1080.357788085938	782.5109252929688	-147.6184387207031	933.230224609375	35.71186065673828	-201.0169219970703	1023.399719238281	394.1024475097656	-186.1473541259766	1163.790405273438	30.83009147644043	-252.0095672607422	1098.827270507812	37.23512649536133	-279.8766784667969	1083.548828125	30.30830383300781	-182.7722625732422	874.70458984375	37.4870491027832	-243.8944549560547	1043.936157226562	790.1370849609375	-595.578125	nan	nan	nan	nan	nan	nan	
